<svg width="362" height="362" xmlns="http://www.w3.org/2000/svg" xml:space="preserve" enable-background="new 0 0 420 420" version="1.1">
 <g>
  <title>Layer 1</title>
  <path id="svg_2" d="m362.06122,241.02266c0.00061,10.99652 0.30169,21.50342 -0.06174,31.98733c-0.71762,20.70109 -4.37042,40.64328 -17.68027,57.46409c-11.98364,15.14477 -27.49921,24.54208 -46.47171,28.65127c-15.93362,3.45105 -31.99881,2.8862 -48.0766,2.8917c-55.31494,0.01885 -110.63841,0.57714 -165.941,-0.24933c-24.98273,-0.37339 -47.66946,-8.93943 -64.20062,-28.89917c-9.99673,-12.07007 -15.61608,-26.18085 -17.77137,-42.04999c-3.45167,-25.4144 -1.38388,-50.84247 -1.66904,-76.24851c-0.47868,-42.64712 -0.51354,-85.30841 0.03443,-127.95385c0.25953,-20.19751 4.88603,-39.67405 18.04984,-55.80391c13.58456,-16.64542 31.24725,-25.99894 52.77738,-28.94371c26.07021,-3.56574 52.16905,-1.41438 78.24182,-1.71796c41.64717,-0.48493 83.30812,-0.46324 124.95491,0.0375c15.93472,0.1916 31.75739,2.70945 45.98523,10.91402c23.47836,13.53891 36.30875,33.72253 40.07599,60.69918c2.85776,20.46378 1.38943,40.85099 1.63327,61.25949c0.42792,35.81596 0.11948,71.64076 0.11948,107.96185m-314.43384,60.98273c0.1658,-0.9989 0.3316,-1.99781 0.43545,-2.97647c0,0 0.03266,0.05639 0.71007,-0.10856c2.69988,-4.97564 5.39976,-9.95132 8.44313,-15.55886c4.27181,-5.86994 7.9414,-12.33347 12.98127,-17.44629c5.25949,-5.33566 11.83895,-9.37021 18.55315,-14.07587c5.87594,-2.56079 11.75188,-5.12155 18.37293,-7.70331c6.67836,-1.98077 13.35674,-3.96155 20.8403,-5.92489c9.89868,-2.36728 19.79738,-4.73456 30.45136,-6.9892c7.08177,-1.97958 14.16354,-3.95917 21.98347,-5.94905c4.91747,-1.74423 9.83493,-3.48845 15.48195,-5.36487c3.41339,-1.42981 6.82677,-2.85963 10.94479,-4.39856c10.036,-4.88946 20.07199,-9.77893 30.78745,-14.79999c5.19101,-3.55423 10.38202,-7.10844 15.4884,-10.69639c0,0 -0.04306,0.0818 0.44556,0.05061c0.40704,-0.22418 0.81409,-0.44838 1.90646,-0.94627c7.46756,-6.76549 14.93512,-13.53099 22.78995,-20.84644c2.98413,-3.05655 5.96826,-6.11308 9.52899,-9.50757c2.76831,-3.8963 5.53662,-7.7926 8.81809,-12.13382c3.82989,-7.19712 7.65979,-14.39427 11.94284,-22.13681c1.56863,-4.46208 3.13727,-8.92416 5.14431,-13.96321c7.76017,-27.36069 9.16324,-56.36202 2.7183,-69.67748c-0.20719,3.87116 -0.35215,6.57938 -0.81345,9.92241c-1.91257,11.61765 -6.86355,22.05682 -12.97098,32.70566c-2.53134,3.33869 -5.06271,6.67738 -8.14294,10.46156c-3.48273,3.34566 -6.96549,6.69132 -11.05106,10.32984c-3.82055,3.1173 -7.64111,6.23459 -12.14422,9.57456c-9.75382,5.71562 -19.50766,11.43124 -29.99277,17.17492c-5.4209,2.429 -10.8418,4.858 -16.96343,7.39852c-12.93504,4.39319 -25.87007,8.78636 -39.57772,13.13507c-7.55574,1.8916 -15.11147,3.7832 -23.43784,5.57503c-12.05871,5.04234 -24.11745,10.08468 -36.85452,15.31752c-8.86695,5.81796 -17.73389,11.63592 -27.21889,17.69938c-3.53895,3.25864 -7.0779,6.51726 -11.15655,10.11005c-4.4482,5.21936 -8.8964,10.43873 -13.85825,16.04454c-1.96915,2.93516 -3.9383,5.87033 -6.34383,9.35336c-3.55286,6.80553 -7.69097,13.37798 -10.51643,20.47319c-3.8858,9.75794 -6.77834,19.91141 -10.24267,30.74429c-0.60096,4.95667 -1.35921,9.90036 -1.76872,14.87278c-0.75089,9.11767 -1.29604,18.25222 -1.92697,27.37976c0.43478,0.04733 0.86957,0.09463 1.30435,0.14196c1.08472,-4.61203 2.16943,-9.22408 3.76156,-14.14208c0.21295,-1.04026 0.4259,-2.08048 0.57686,-3.10248c0,0 0.02926,0.05762 0.57025,-0.01654z" fill="#000000"/>
  <rect fill="#000000" x="33" y="35.80001" width="295.99999" height="290.99998" id="svg_82" stroke="null"/>
  <g id="svg_1" stroke="null">
   <title stroke="null">Figma.logo</title>
   <desc stroke="null">Created using Figma</desc>
   <path id="svg_80" class="st0" d="m139.5,305.49999c22.908,0 41.5,-18.592 41.5,-41.5l0,-41.5l-41.5,0c-22.908,0 -41.5,18.592 -41.5,41.5s18.592,41.5 41.5,41.5z" fill="#0acf83" stroke="null"/>
   <path id="svg_79" class="st1" d="m98,181c0,-22.908 18.592,-41.5 41.5,-41.5l41.5,0l0,83l-41.5,0c-22.908,0 -41.5,-18.592 -41.5,-41.5z" fill="#a259ff" stroke="null"/>
   <path id="svg_78" class="st2" d="m98,98c0,-22.908 18.592,-41.5 41.5,-41.5l41.5,0l0,83l-41.5,0c-22.908,0 -41.5,-18.592 -41.5,-41.5z" fill="#f24e1e" stroke="null"/>
   <path id="svg_77" class="st3" d="m181,56.5l41.5,0c22.908,0 41.5,18.592 41.5,41.5s-18.592,41.5 -41.5,41.5l-41.5,0l0,-83z" fill="#ff7262" stroke="null"/>
   <path id="svg_76" class="st4" d="m264,181c0,22.908 -18.592,41.5 -41.5,41.5s-41.5,-18.592 -41.5,-41.5s18.592,-41.5 41.5,-41.5s41.5,18.592 41.5,41.5z" fill="#1abcfe" stroke="null"/>
  </g>
 </g>

</svg>