<svg width="362" height="362" xmlns="http://www.w3.org/2000/svg" version="1.1" enable-background="new 0 0 420 420" xml:space="preserve">
 <g>
  <title>Layer 1</title>
  <path fill="#161616" d="m362.39212,241.39056c0.00061,10.99652 0.30169,21.50342 -0.06174,31.98733c-0.71762,20.70109 -4.37042,40.64328 -17.68027,57.46409c-11.98364,15.14477 -27.49921,24.54208 -46.47171,28.65127c-15.93362,3.45105 -31.99881,2.8862 -48.0766,2.8917c-55.31494,0.01885 -110.63841,0.57714 -165.941,-0.24933c-24.98273,-0.37339 -47.66946,-8.93943 -64.20062,-28.89917c-9.99673,-12.07007 -15.61608,-26.18085 -17.77137,-42.04999c-3.45167,-25.4144 -1.38388,-50.84247 -1.66904,-76.24851c-0.47868,-42.64712 -0.51354,-85.30841 0.03443,-127.95385c0.25953,-20.19751 4.88603,-39.67405 18.04984,-55.80391c13.58456,-16.64542 31.24725,-25.99894 52.77738,-28.94371c26.07021,-3.56574 52.16905,-1.41438 78.24182,-1.71796c41.64717,-0.48493 83.30812,-0.46324 124.95491,0.0375c15.93472,0.1916 31.75739,2.70945 45.98523,10.91402c23.47836,13.53891 36.30875,33.72253 40.07599,60.69918c2.85776,20.46378 1.38943,40.85099 1.63327,61.25949c0.42792,35.81596 0.11948,71.64076 0.11948,107.96185m-314.43384,60.98273c0.1658,-0.9989 0.3316,-1.99781 0.43545,-2.97647c0,0 0.03266,0.05639 0.71007,-0.10856c2.69988,-4.97564 5.39976,-9.95132 8.44313,-15.55886c4.27181,-5.86994 7.9414,-12.33347 12.98127,-17.44629c5.25949,-5.33566 11.83895,-9.37021 18.55315,-14.07587c5.87594,-2.56079 11.75188,-5.12155 18.37293,-7.70331c6.67836,-1.98077 13.35674,-3.96155 20.8403,-5.92489c9.89868,-2.36728 19.79738,-4.73456 30.45136,-6.9892c7.08177,-1.97958 14.16354,-3.95917 21.98347,-5.94905c4.91747,-1.74423 9.83493,-3.48845 15.48195,-5.36487c3.41339,-1.42981 6.82677,-2.85963 10.94479,-4.39856c10.036,-4.88946 20.07199,-9.77893 30.78745,-14.79999c5.19101,-3.55423 10.38202,-7.10844 15.4884,-10.69639c0,0 -0.04306,0.0818 0.44556,0.05061c0.40704,-0.22418 0.81409,-0.44838 1.90646,-0.94627c7.46756,-6.76549 14.93512,-13.53099 22.78995,-20.84644c2.98413,-3.05655 5.96826,-6.11308 9.52899,-9.50757c2.76831,-3.8963 5.53662,-7.7926 8.81809,-12.13382c3.82989,-7.19712 7.65979,-14.39427 11.94284,-22.13681c1.56863,-4.46208 3.13727,-8.92416 5.14431,-13.96321c7.76017,-27.36069 9.16324,-56.36202 2.7183,-69.67748c-0.20719,3.87116 -0.35215,6.57938 -0.81345,9.92241c-1.91257,11.61765 -6.86355,22.05682 -12.97098,32.70566c-2.53134,3.33869 -5.06271,6.67738 -8.14294,10.46156c-3.48273,3.34566 -6.96549,6.69132 -11.05106,10.32984c-3.82055,3.1173 -7.64111,6.23459 -12.14422,9.57456c-9.75382,5.71562 -19.50766,11.43124 -29.99277,17.17492c-5.4209,2.429 -10.8418,4.858 -16.96343,7.39852c-12.93504,4.39319 -25.87007,8.78636 -39.57772,13.13507c-7.55574,1.8916 -15.11147,3.7832 -23.43784,5.57503c-12.05871,5.04234 -24.11745,10.08468 -36.85452,15.31752c-8.86695,5.81796 -17.73389,11.63592 -27.21889,17.69938c-3.53895,3.25864 -7.0779,6.51726 -11.15655,10.11005c-4.4482,5.21936 -8.8964,10.43873 -13.85825,16.04454c-1.96915,2.93516 -3.9383,5.87033 -6.34383,9.35336c-3.55286,6.80553 -7.69097,13.37798 -10.51643,20.47319c-3.8858,9.75794 -6.77834,19.91141 -10.24267,30.74429c-0.60096,4.95667 -1.35921,9.90036 -1.76872,14.87278c-0.75089,9.11767 -1.29604,18.25222 -1.92697,27.37976c0.43478,0.04733 0.86957,0.09463 1.30435,0.14196c1.08472,-4.61203 2.16943,-9.22408 3.76156,-14.14208c0.21295,-1.04026 0.4259,-2.08048 0.57686,-3.10248c0,0 0.02926,0.05762 0.57025,-0.01654z" id="svg_2"/>
  <path fill="#2BA9DA" d="m125.45591,172.62457c12.05873,-5.04233 24.11747,-10.08467 36.44231,-14.76987c-4.92001,4.11121 0.36421,7.4646 0.10648,11.95618c5.03866,-2.09545 9.2734,-3.85655 13.85159,-5.67267c5.09599,-1.97067 9.84853,-3.88632 14.80278,-5.74049c0.03003,1.6963 -0.14168,3.33111 -0.61446,5.13011c-2.51925,0.87651 -4.73742,1.58885 -7.34297,2.37117c-5.36786,1.54045 -10.34833,3.01092 -15.70749,4.51033c-2.45126,0.76822 -4.52385,1.50754 -6.96934,2.20823c-3.79778,1.32282 -7.22263,2.68426 -10.99315,4.09585c-4.50287,1.73149 -8.66007,3.41282 -13.13861,5.21087c-1.71724,0.85579 -3.11313,1.59488 -4.76622,2.30483c-0.42975,-0.02632 -0.6023,-0.02352 -0.80593,-0.33327c-1.17917,-1.17017 -2.32724,-2.02779 -3.52401,-2.92178c-0.43023,-2.67879 -0.88559,-5.51413 -1.34098,-8.34949z" id="svg_3"/>
  <path fill="#EF2B68" d="m253.51663,190.4147c-5.19101,3.55423 -10.38202,7.10844 -16.18888,10.54306c-4.03537,-0.66721 -7.54132,-1.99437 -10.85922,-1.62627c-13.72755,1.52295 -27.40524,3.51039 -41.0769,5.49478c-1.14076,0.16559 -2.10013,1.58078 -3.43311,2.41277c-0.67619,-0.00024 -1.06302,0.00215 -1.58822,-0.09985c-0.42961,-0.0006 -0.72084,0.10322 -1.16477,0.37539c-0.36932,0.38083 -0.59703,0.58069 -1.07603,0.76401c-0.24021,-0.00388 -0.72061,0.00467 -0.94432,-0.02824c-0.22373,-0.03292 -0.67556,-0.01349 -0.69234,-0.21285c-0.01678,-0.19934 -0.05531,-0.60046 -0.04135,-0.84662c0.01396,-0.24617 0.00509,-0.73918 0.09991,-0.7901c0.09482,-0.05091 0.06572,-0.35687 0.06572,-0.35687c0,0 -0.27853,0.29329 -0.4933,0.30809c-0.21477,0.0148 -0.64308,0.06911 -0.84848,0.17325c-2.87099,0.29723 -5.53679,0.4877 -8.20213,0.68393c-6.14594,0.45244 -12.29169,0.90767 -18.10315,1.22728c3.07632,-1.02596 5.81828,-1.91742 8.96417,-2.82443c5.11234,-1.03977 9.82077,-2.06398 14.94293,-3.07004c3.85791,-0.58014 7.3021,-1.17845 11.1557,-1.79053c3.04859,-0.48163 5.68776,-0.94951 8.71021,-1.39874c2.12544,-0.34896 3.8676,-0.71655 5.9996,-1.08463c3.85391,-0.76454 7.31798,-1.52862 11.19184,-2.36905c5.45507,-1.2119 10.50038,-2.34745 15.82626,-3.22628c9.43899,-0.58155 18.59741,-1.4198 27.75586,-2.25806z" id="svg_4"/>
  <path fill="#523CBB" d="m284.35092,104.3466c3.48272,-3.34566 6.96548,-6.69132 10.73489,-9.79897c-1.73462,8.15595 -3.75592,16.07389 -5.82495,24.23909c-2.67117,3.31855 -5.29459,6.38982 -8.20941,9.6319c-3.13074,2.32248 -5.97003,4.47415 -9.11102,6.75682c-2.06351,1.30008 -3.82535,2.46916 -5.89914,3.74783c-0.78986,0.53971 -1.2678,0.96985 -1.71555,1.4173c0.03015,0.01731 0.0365,-0.05194 -0.25268,0.00217c-0.44324,0.37147 -0.59733,0.68884 -0.73945,0.9519c0.012,-0.0543 -0.08941,-0.10002 -0.45825,-0.16092c-3.40979,1.39894 -6.45074,2.85877 -9.8316,4.37006c-1.4397,0.37012 -2.53943,0.68878 -3.59473,0.66852c1.21717,-1.68527 2.20926,-3.26526 3.59485,-4.3362c5.11368,-3.95253 10.55591,-7.49933 15.50748,-11.63786c8.12445,-6.79041 15.19223,-14.39208 15.79956,-25.85164z" id="svg_5"/>
  <path fill="#C548DC" d="m272.24212,135.04443c2.8393,-2.15166 5.67859,-4.30333 8.97269,-6.28461c4.87939,8.48133 3.26062,17.39174 2.65613,26.08495c-0.23581,3.39154 0.36343,4.69876 3.65539,4.6245c-2.9841,3.05653 -5.96823,6.11306 -9.46097,9.55474c-1.54098,0.77073 -2.57339,1.1563 -3.77084,1.14531c-0.41095,-8.41739 -0.57513,-16.44191 -0.94,-24.4573c-0.16229,-3.56536 -0.72919,-7.11229 -1.1124,-10.66759z" id="svg_6"/>
  <path fill="#6353CB" d="m284.0495,104.49304c-0.30591,11.31312 -7.37369,18.91479 -15.49814,25.7052c-4.95157,4.13853 -10.3938,7.68533 -15.50748,11.63786c-1.38559,1.07094 -2.37768,2.65093 -3.8255,4.59532c-6.77338,2.7574 -13.27164,4.91674 -20.03961,6.99265c-0.16849,-0.76164 -0.29636,-1.63176 0.07925,-2.08007c0.91586,-1.09313 2.06497,-1.99086 3.40473,-3.10054c4.02066,-2.17739 7.75857,-4.21816 11.49249,-6.26629c12.07031,-6.62082 23.44018,-13.94689 28.13119,-27.98581c3.82053,-3.11731 7.64109,-6.2346 11.76307,-9.49832z" id="svg_7"/>
  <path fill="#9A48DE" d="m308.41073,125.40608c-3.82989,7.19714 -7.65979,14.39429 -11.81448,21.44639c-0.79248,-3.95988 -1.22473,-7.77948 -1.73602,-11.58847c-0.80662,-6.00921 -1.66633,-12.0113 -2.32959,-18.29385c3.66922,-4.77867 7.16445,-9.27988 10.68966,-13.38928c-0.09161,2.02351 -0.68246,3.79284 -0.25143,5.2625c1.63467,5.57348 3.60016,11.04995 5.44186,16.56271z" id="svg_8"/>
  <path fill="#FC4999" d="m182.24786,207.24166c1.04364,-0.83461 2.00301,-2.2498 3.14377,-2.41539c13.67166,-1.98439 27.34935,-3.97183 41.0769,-5.49478c3.3179,-0.3681 6.82385,0.95906 10.51947,1.69207c-9.75986,5.07487 -19.79585,9.96434 -30.02759,14.62629c-0.37474,-2.06073 0.06351,-5.01162 -0.84944,-5.51577c-2.64647,-1.46148 -5.79266,-2.42904 -8.82127,-2.69454c-4.98146,-0.43664 -10.02467,-0.16875 -15.04184,-0.19788m27.61404,5.64751c0,0 0.04375,-0.01716 0,0z" id="svg_9"/>
  <path fill="#B548DD" d="m292.35665,117.2476c0.83725,6.0051 1.69696,12.00719 2.50358,18.0164c0.51129,3.80899 0.94354,7.62859 1.47943,11.81092c-2.70008,4.26379 -5.46839,8.16009 -8.52503,12.22537c-3.58026,0.24324 -4.1795,-1.06398 -3.94369,-4.45552c0.60449,-8.69321 2.22326,-17.60362 -2.36472,-26.25575c2.46005,-3.41248 5.08347,-6.48375 8.0929,-9.82969c1.17648,-0.68702 1.96701,-1.09938 2.75753,-1.51173z" id="svg_10"/>
  <path fill="#7F4BDC" d="m316.22943,50.5076c0.14492,-2.70823 0.28988,-5.41645 0.49707,-9.28761c6.44494,13.31546 5.04187,42.31679 -3.18036,69.81913c-1.02353,-2.93739 -1.08209,-6.22708 -2.26291,-9.04677c-1.83057,-4.37123 -2.1897,-8.45011 -0.19418,-12.76607c0.19094,-0.41301 -0.39994,-1.18749 -0.57935,-2.16809c4.24622,-12.07112 6.99399,-23.9956 5.71973,-36.55059z" id="svg_11"/>
  <path fill="#3AC2BD" d="m125.11674,172.71981c0.79456,2.74012 1.24992,5.57546 1.68015,8.25425c1.19677,0.89399 2.34484,1.75161 3.29588,3.10607c-0.68929,0.78971 -1.18152,1.08259 -2.03368,1.3798c-1.81015,0.703 -3.26037,1.40168 -4.95753,2.10414c-0.55164,0.18768 -0.72629,0.45617 -0.74169,0.81482c0.02919,0.00554 -0.00276,-0.04457 -0.31868,0.10109c-4.75125,2.80797 -9.18658,5.47026 -13.91726,8.22329c-1.36568,0.68241 -2.43602,1.27408 -3.62824,1.54038c-2.18756,-2.87515 -4.25325,-5.42493 -6.31895,-7.9747c8.86694,-5.81795 17.73388,-11.63591 26.94,-17.54914z" id="svg_12"/>
  <path fill="#7159CE" d="m271.94513,114.10269c-4.34971,13.92759 -15.71958,21.25366 -27.78989,27.87448c-3.73392,2.04813 -7.47183,4.0889 -11.60922,6.00221c0.45144,-2.21036 1.01019,-4.48254 2.21966,-6.32831c2.33118,-3.55745 5.03021,-6.87384 7.57669,-10.29019c9.75382,-5.71562 19.50766,-11.43124 29.60276,-17.25819z" id="svg_13"/>
  <path fill="#FB5CA0" d="m181.95851,207.23904c5.30652,0.03175 10.34973,-0.23614 15.33119,0.2005c3.02861,0.2655 6.1748,1.23306 8.82127,2.69454c0.91295,0.50415 0.4747,3.45504 0.49712,5.57032c-3.56996,1.71189 -6.98334,3.14171 -11.202,4.59198c-4.2254,0.32419 -7.64554,0.6279 -11.27331,0.71897c-1.99512,-2.12603 -4.14044,-3.82352 -5.46373,-6.01696c-1.18897,-1.97079 -1.47507,-4.48631 -2.15943,-6.76153c0,0 0.45183,-0.01943 0.77291,0.14021c0.32106,0.15964 0.75296,0.22132 0.75296,0.22132c0,0 0.33421,-0.31591 0.33421,-0.31591c0.2388,-0.18721 0.46651,-0.38707 1.12456,-0.78169c0.6324,-0.20715 0.82341,-0.23218 1.0144,-0.2572c0.38684,-0.0024 0.77367,-0.00479 1.44985,-0.00455z" id="svg_14"/>
  <path fill="#D6F9C3" d="m45.58717,276.39102c3.31811,-9.98401 6.21065,-20.13748 10.09645,-29.89542c2.82546,-7.09521 6.96357,-13.66766 10.92276,-20.55408c2.54251,0.77851 4.67869,1.63791 6.6616,2.79664c-11.2795,15.53753 -18.40134,32.66128 -24.03045,50.79962c-0.58031,0.93319 -0.95968,1.64923 -1.0919,1.8988c-0.84014,-1.65686 -1.6993,-3.35123 -2.55846,-5.04556z" id="svg_15"/>
  <path fill="#5D6BD6" d="m241.97674,131.3749c-2.18085,3.40233 -4.87988,6.71872 -7.21106,10.27617c-1.20947,1.84577 -1.76822,4.11795 -2.50424,6.46157c-0.93845,1.2405 -2.08756,2.13823 -3.00342,3.23136c-0.37561,0.44831 -0.24774,1.31843 -0.3555,2.23897c-0.84332,0.38169 -1.68008,0.52105 -2.72409,0.525c-0.74792,0.30929 -1.28859,0.754 -2.06616,1.27038c-0.23689,0.07169 -0.70561,0.23096 -0.92825,0.2302c-0.5275,0.03076 -0.80022,0.14146 -1.33603,0.35868c-0.67092,0.14809 -1.04662,0.26887 -1.77408,0.40545c-0.97324,0.32284 -1.5947,0.62988 -2.44722,0.86914c-0.68306,0.07052 -1.13506,0.20888 -1.75887,0.36377c-0.17178,0.01654 -0.3835,0.28915 -0.70684,0.2316c-0.53243,0.00753 -0.74147,0.07263 -1.33756,0.18292c-2.41385,0.43474 -4.44067,0.82428 -6.26486,1.01388c1.34306,-1.08192 2.48347,-1.96394 3.6239,-2.84595c-0.35968,-0.21888 -0.71934,-0.43775 -1.07903,-0.65664c0.79494,-1.6774 1.65349,-3.32852 2.36074,-5.04212c0.41832,-1.01358 0.59741,-2.1259 1.0899,-3.46008c4.06865,-2.96193 7.93148,-5.65759 11.79432,-8.35327c5.42089,-2.42899 10.84179,-4.85799 16.62835,-7.30103z" id="svg_16"/>
  <path fill="#FC6A05" d="m179.99127,225.65109c-7.08179,1.97958 -14.16356,3.95917 -22.09882,5.8743c-7.41415,0.24484 -13.98631,0.95337 -20.53267,0.76501c-8.66963,-0.24936 -17.3191,-1.20004 -25.68817,-2.0722c3.43501,-1.05954 6.58097,-1.89618 10.04442,-2.52021c1.45534,0.29368 2.59828,0.48911 3.73027,0.43866c18.18248,-0.81002 36.36357,-1.65133 54.54497,-2.48556z" id="svg_17"/>
  <path fill="#0670DA" d="m224.99801,138.73169c-3.51246,2.63992 -7.37529,5.33558 -11.79237,8.38742c-7.95227,3.97647 -15.3503,7.59678 -22.74831,11.21711c-4.75251,1.91567 -9.50505,3.83132 -14.51158,5.48476c1.71536,-5.12495 3.46034,-10.20981 9.96295,-10.63068c0.00431,-0.00027 -0.04298,-0.79806 -0.06616,-1.22331c12.93504,-4.39317 25.87007,-8.78634 39.15547,-13.2353z" id="svg_18"/>
  <path fill="#AB0417" d="m274.45956,170.5659c1.03241,-0.38559 2.06482,-0.77116 3.4122,-1.26691c-7.15262,6.65534 -14.62018,13.42084 -22.52917,20.16463c-0.94553,0.31857 -1.44959,0.65886 -1.95365,0.99914c0,0.00002 0.04306,-0.08178 0.08536,-0.06494c-9.11612,0.85514 -18.27454,1.69339 -27.43176,2.21588c0.47131,-0.60005 0.9414,-0.88435 1.75195,-1.19262c1.12128,-0.63964 1.90213,-1.2553 3.07648,-1.92124c3.10235,-0.79339 5.81118,-1.53653 8.88742,-2.35037c4.13278,-1.38797 7.89816,-2.70525 11.99801,-4.11828c4.76499,-2.27918 9.19556,-4.46256 13.97028,-6.70597c3.14044,-1.95979 5.93665,-3.85956 8.73288,-5.75932z" id="svg_19"/>
  <path fill="#FAE458" d="m88.36955,252.30951c-6.0024,4.60339 -12.58186,8.63794 -17.84135,13.9736c-5.03987,5.11282 -8.70946,11.57635 -13.45351,17.71142c-1.22793,-0.03033 -1.98364,-0.32577 -2.68996,-0.9765c5.56089,-11.73889 12.7483,-21.94815 21.64459,-30.93188c1.98948,-2.00901 4.23155,-3.76786 6.28779,-5.42179c1.97112,2.02848 4.01177,3.8368 6.05244,5.64515z" id="svg_20"/>
  <path fill="#39239C" d="m292.53064,116.97015c-0.96451,0.6898 -1.75504,1.10216 -2.88379,1.5419c1.68304,-7.89053 3.70434,-15.80847 5.71338,-24.18716c2.51913,-3.79945 5.0505,-7.13814 8.11474,-10.49484c0.81757,3.56379 1.34,7.14819 1.30112,10.72647c-0.02481,2.28471 -0.88025,4.5604 -1.37195,7.09085c-0.01153,0.41789 -0.01437,0.58509 -0.09506,0.98181c-0.07788,0.2295 -0.0586,0.71385 -0.04364,0.66363c0.01498,-0.05021 -0.07511,-0.10374 -0.07511,-0.10374c-3.49524,4.5012 -6.99047,9.00241 -10.65969,13.78108z" id="svg_21"/>
  <path fill="#FDB112" d="m127.48938,238.56161c-6.67836,1.98077 -13.35674,3.96155 -20.72625,5.85538c-4.00238,0.2691 -7.31359,0.62521 -10.94032,1.01523c0.24309,-1.65409 0.43758,-2.97751 0.63154,-4.29721c-2.05453,-0.37101 -3.74526,-0.6763 -5.21809,-1.24817c0.72795,-0.94739 1.23796,-1.62821 1.74305,-2.34778c-0.00494,-0.03876 -0.0767,-0.06961 0.34094,0.07733c1.15772,-0.30609 1.8978,-0.75915 2.90933,-1.18491c0.81351,-0.03064 1.35558,-0.08853 2.10632,-0.22531c0.49509,-0.19513 0.70989,-0.39026 1.08182,-0.75482c0.22878,-0.09058 0.71008,-0.19308 1.1933,-0.14911c2.44636,0.05716 4.40953,0.08078 6.37269,0.08173c6.99938,0.00345 14.09749,-0.63831 20.50567,3.17764z" id="svg_22"/>
  <path fill="#ECF0A7" d="m45.51406,276.81546c0.93227,1.26989 1.79143,2.96426 2.63157,4.62112c0.13222,-0.24957 0.51159,-0.96561 1.0857,-1.60278c2.83059,2.72326 1.59185,6.03122 1.75353,9.1015c0.00687,0.13037 0.19558,0.25119 0.23437,0.73682c-0.97441,3.50061 -1.88363,6.64083 -2.79284,9.78109c0,0 -0.03266,-0.05639 -0.27265,0.15277c-0.40546,1.08661 -0.57096,1.96402 -0.73645,2.84147c0,0 -0.02926,-0.05762 -0.28635,0.17626c-0.44712,1.21408 -0.63715,2.19434 -0.82718,3.17456c-1.08472,4.61204 -2.16943,9.22409 -3.25415,13.83612c-0.43478,-0.04733 -0.86957,-0.09463 -1.30435,-0.14196c0.63093,-9.12754 1.17608,-18.26209 1.92697,-27.37976c0.40951,-4.97242 1.16776,-9.91611 1.84183,-15.29721z" id="svg_23"/>
  <path fill="#301D92" d="m303.41281,101.39666c0.48303,-2.27974 1.33847,-4.55543 1.36328,-6.84014c0.03888,-3.57828 -0.48355,-7.16268 -1.06592,-10.96435c5.33933,-10.39295 10.29031,-20.83212 12.36105,-32.76717c1.43247,12.23759 -1.3153,24.16207 -5.72421,36.55003c-2.45221,5.13439 -4.69321,9.57801 -6.9342,14.02163z" id="svg_24"/>
  <path fill="#8C49DF" d="m303.40414,101.64735c2.24966,-4.69431 4.49066,-9.13793 6.89435,-13.89839c0.39062,0.28983 0.9815,1.06431 0.79056,1.47732c-1.99552,4.31596 -1.63639,8.39484 0.19418,12.76607c1.18082,2.81969 1.23938,6.10938 2.04373,9.33525c-1.3258,4.60892 -2.89444,9.071 -4.68964,13.80579c-2.06829,-5.24007 -4.03378,-10.71654 -5.66845,-16.29002c-0.43103,-1.46966 0.15982,-3.23899 0.25143,-5.2625c-0.02997,-0.3918 0.06012,-0.33827 0.17057,-0.37512c0.30893,-0.31296 0.27081,-0.56936 -0.00391,-0.80608c0.00281,-0.16721 0.00565,-0.33441 0.01718,-0.75232z" id="svg_25"/>
  <path fill="#FA7A05" d="m127.89198,238.57031c-6.81078,-3.82465 -13.90889,-3.18289 -20.90827,-3.18634c-1.96316,-0.00095 -3.92633,-0.02457 -6.10687,-0.31745c3.357,-1.72824 6.93135,-3.17681 10.50571,-4.62542c8.65813,0.64926 17.3076,1.59994 25.97723,1.8493c6.54636,0.18836 13.11852,-0.52017 20.15502,-0.82135c-9.42284,2.37543 -19.32154,4.74271 -29.62282,7.10126z" id="svg_26"/>
  <path fill="#108AE7" d="m185.45623,151.94476c0.40949,0.44748 0.45678,1.24527 0.45247,1.24554c-6.50261,0.42087 -8.24759,5.50573 -10.30641,10.6857c-4.32419,2.07833 -8.55893,3.83943 -13.59759,5.93488c0.25773,-4.49158 -5.02649,-7.84497 0.27884,-11.90628c7.67492,-2.19887 15.23065,-4.09047 23.17269,-5.95984z" id="svg_27"/>
  <path fill="#FB4A09" d="m180.36035,225.64593c-18.55048,0.83939 -36.73157,1.6807 -54.91405,2.49072c-1.13199,0.05045 -2.27493,-0.14498 -3.35173,-0.56274c1.18655,-0.61169 2.29878,-1.03876 3.43961,-1.13834c12.99371,-1.13443 25.99176,-2.21887 39.40602,-3.26822c6.74498,-0.61415 13.07258,-1.27674 19.4002,-1.93936c3.42015,-0.30371 6.84029,-0.60742 10.70092,-0.86551c-4.47698,1.78986 -9.39444,3.53408 -14.68097,5.28345z" id="svg_28"/>
  <path fill="#5CE87B" d="m73.05754,216.2826c4.44819,-5.21936 8.89639,-10.43873 13.91153,-15.69801c2.52426,2.19478 4.48159,4.42949 6.40751,6.87177c-0.03142,0.20756 -0.07988,0.62385 -0.41366,0.72885c-3.38889,2.82913 -6.44399,5.5533 -9.8236,8.18344c-3.57692,-0.09136 -6.82936,-0.0887 -10.08178,-0.08605z" id="svg_29"/>
  <path fill="#3ECD9E" d="m93.408,207.24879c-1.95734,-2.23471 -3.91467,-4.46942 -6.1691,-6.83128c3.24188,-3.38579 6.78083,-6.64441 10.62881,-10.02581c2.37473,2.42702 4.44042,4.9768 6.5863,7.83184c0.08015,0.30528 0.12281,0.22386 -0.09952,0.35299c-0.45836,0.37403 -0.69435,0.61892 -1.13507,1.12592c-3.40697,2.69017 -6.60919,5.11826 -9.81142,7.54634z" id="svg_30"/>
  <path fill="#FBD532" d="m91.01835,240.15341c1.69074,0.3053 3.38147,0.61059 5.436,0.9816c-0.19396,1.3197 -0.38845,2.64312 -0.63154,4.29721c3.62673,-0.39002 6.93794,-0.74613 10.56776,-1.00476c-5.55734,2.65823 -11.43328,5.21899 -17.66513,7.8309c-2.39656,-1.7572 -4.43721,-3.56552 -6.43238,-5.66074c0.04547,-0.28686 -0.01496,-0.4151 0.2982,-0.52286c3.0178,-2.04559 5.72244,-3.98349 8.42709,-5.92135z" id="svg_31"/>
  <path fill="#AEF3A0" d="m72.80071,216.47583c3.50925,-0.19588 6.76169,-0.19854 10.20354,0.19955c-2.40158,3.48833 -4.99258,6.5759 -7.76172,9.89301c-0.72586,0.77652 -1.27357,1.32348 -1.82128,1.87045c-2.13618,-0.85941 -4.27236,-1.71881 -6.59668,-2.77126c1.78101,-3.1282 3.75016,-6.06337 5.97614,-9.19175z" id="svg_32"/>
  <path fill="#FBD532" d="m48.76509,299.37072c0.57051,-3.05777 1.47973,-6.19799 2.60524,-9.99627c1.13255,-2.43906 2.04879,-4.22013 2.96502,-6.00116c0.7557,0.29547 1.51141,0.59091 2.5676,0.93719c-2.39939,5.02646 -5.09927,10.00214 -8.13786,15.06024z" id="svg_33"/>
  <path fill="#FBD532" d="m46.55746,305.64529c-0.06367,-0.82724 0.12636,-1.8075 0.60448,-3.03073c0.07513,0.79727 -0.13782,1.83749 -0.60448,3.03073z" id="svg_34"/>
  <path fill="#FBD532" d="m47.68779,302.41037c-0.10501,-0.84037 0.06049,-1.71778 0.49693,-2.81449c0.10516,0.7796 -0.06064,1.77851 -0.49693,2.81449z" id="svg_35"/>
  <path fill="#EF2B68" d="m253.63324,190.44717c0.25976,-0.32469 0.76382,-0.66498 1.36666,-0.84671c-0.30825,0.38275 -0.7153,0.60695 -1.36666,0.84671z" id="svg_36"/>
  <path fill="#F38ECB" d="m209.52471,195.97538c-3.46406,0.76409 -6.92813,1.52817 -10.93437,1.99863c-4.99897,-5.12216 -9.10847,-10.34354 -14.00609,-14.67348c-5.35729,-4.73634 -11.44311,-8.64866 -17.21141,-12.92013c4.98047,-1.47048 9.96094,-2.94095 15.55279,-4.17983c9.29759,8.64072 18.0364,16.99739 26.5734,25.55535c0.70751,0.70925 0.04934,2.78085 0.02568,4.21946z" id="svg_37"/>
  <path fill="#FAC2BF" d="m123.34849,187.56028c1.45023,-0.69867 2.90045,-1.39735 4.93355,-1.99598c1.42258,-0.36866 2.26227,-0.83737 3.10196,-1.30606c1.39592,-0.73908 2.79181,-1.47817 4.67792,-1.98368c1.81701,1.15406 3.04707,2.28014 4.48797,2.95815c5.21146,2.45215 10.65941,4.44923 15.70502,7.19368c5.58209,3.03625 10.82045,6.70445 16.20851,10.09744c-4.70842,1.02422 -9.41685,2.04843 -14.76414,2.81729c-10.39882,-6.21077 -20.52678,-11.28493 -31.76877,-13.91858c-1.35777,-0.31807 -2.39018,-2.02501 -3.5734,-3.08822c0,0 0.03195,0.05011 0.19345,-0.0636c0.40647,-0.27762 0.61861,-0.47653 0.79793,-0.71044z" id="svg_38"/>
  <path fill="#ED73D1" d="m209.93449,195.89904c-0.38612,-1.36227 0.27205,-3.43387 -0.43546,-4.14312c-8.537,-8.55796 -17.27581,-16.91463 -26.18601,-25.62532c1.99417,-1.01392 4.21234,-1.72626 7.12152,-2.59371c1.71078,-0.33027 2.73054,-0.50546 3.95755,-0.37167c5.28112,5.24635 10.07307,10.52397 15.50685,15.02716c5.63263,4.66794 9.03323,12.40979 17.55513,13.25268c-0.47013,0.28429 -0.94022,0.56859 -1.6921,0.91193c-5.32708,1.1946 -10.37239,2.33015 -15.82748,3.54205z" id="svg_39"/>
  <path fill="#F7B5C3" d="m172.87716,202.54199c-5.8018,-3.41115 -11.04016,-7.07935 -16.62225,-10.1156c-5.04561,-2.74445 -10.49356,-4.74153 -15.70502,-7.19368c-1.4409,-0.67801 -2.67096,-1.80409 -4.16662,-3.07486c3.98832,-2.03162 8.14552,-3.71295 12.66262,-5.08013c1.37241,1.38976 2.21149,2.7529 3.4296,3.48758c3.79619,2.28955 7.89565,4.09944 11.58495,6.53794c6.63318,4.38429 13.05366,9.09034 19.563,13.66197c-3.44418,0.59833 -6.88837,1.19664 -10.74628,1.77678z" id="svg_40"/>
  <path fill="#F7A8C5" d="m184.03286,200.75146c-6.91876,-4.55788 -13.33924,-9.26393 -19.97242,-13.64822c-3.6893,-2.4385 -7.78876,-4.24839 -11.58495,-6.53794c-1.21811,-0.73468 -2.05719,-2.09782 -3.08392,-3.53775c3.41061,-1.72573 6.83546,-3.08717 10.71637,-4.08633c1.18295,1.22412 1.79472,2.22798 2.65487,2.92555c7.33321,5.94708 14.69909,11.85414 22.08327,17.73796c2.46271,1.96231 5.00682,3.82247 7.51372,5.72933c-2.63918,0.46789 -5.27835,0.93577 -8.32694,1.4174z" id="svg_41"/>
  <path fill="#F59AC8" d="m192.74307,199.35272c-2.89017,-1.92552 -5.43428,-3.78568 -7.89699,-5.74799c-7.38418,-5.88382 -14.75006,-11.79088 -22.08327,-17.73796c-0.86015,-0.69757 -1.47192,-1.70143 -2.28195,-2.88695c1.98944,-1.06295 4.06203,-1.80227 6.51329,-2.57051c6.14699,4.24256 12.23281,8.15488 17.5901,12.89122c4.89762,4.32994 9.00712,9.55132 13.61626,14.67392c-1.58984,0.66172 -3.332,1.02931 -5.45744,1.37827z" id="svg_42"/>
  <path fill="#467BDD" d="m194.18486,162.85624c-1.01978,0.17519 -2.03954,0.35038 -3.44924,0.5165c-0.21823,-1.64391 -0.04652,-3.27872 -0.07655,-4.97504c7.19627,-3.68181 14.5943,-7.30212 22.34076,-11.01233c0.06175,0.97801 -0.11734,2.09033 -0.53566,3.10391c-0.70725,1.7136 -1.5658,3.36472 -2.36074,5.04212c0.35969,0.21889 0.71935,0.43776 1.07903,0.65664c-1.14043,0.88201 -2.28084,1.76403 -3.93198,2.93879c-1.29705,0.62546 -2.0834,0.95816 -3.25279,1.28116c-3.5263,0.80961 -6.66957,1.62893 -9.81283,2.44825z" id="svg_43"/>
  <path fill="#F7B5C3" d="m131.12681,184.22909c-0.5825,0.49784 -1.42219,0.96655 -2.48485,1.33087c0.26929,-0.39724 0.76152,-0.69012 1.48188,-1.16728c0.40069,-0.18709 0.57324,-0.18989 1.00297,-0.16359z" id="svg_44"/>
  <path fill="#FACEBD" d="m122.04119,188.47998c1.49914,0.91755 2.53155,2.62449 3.88932,2.94256c11.24199,2.63365 21.36995,7.70781 31.36484,13.93413c-2.50701,1.16237 -5.24897,2.05383 -8.71985,3.04465c-3.20298,0.73684 -5.67702,1.37434 -8.43967,1.7903c-9.84137,-3.78687 -19.41199,-7.30593 -28.92267,-10.98008c-1.10156,-0.42553 -1.87063,-1.7118 -2.79388,-2.599c4.43533,-2.6623 8.87066,-5.32459 13.62191,-8.13256z" id="svg_45"/>
  <path fill="#FE7B8C" d="m140.42445,210.41317c2.47403,-0.63751 4.94807,-1.27501 7.8167,-1.87736c6.54037,-0.41896 12.68612,-0.87419 18.83206,-1.32663c2.66534,-0.19623 5.33114,-0.3867 8.31381,-0.47576c0.51657,0.35889 0.76105,0.55875 1.05051,0.70362c0,0 0.03853,0.40112 0.05531,0.60046c0.70114,2.47458 0.98724,4.9901 2.17621,6.96089c1.32329,2.19344 3.46861,3.89093 5.46373,6.01697c-6.12,0.87525 -12.4476,1.53784 -19.10391,1.89177c-2.77862,-2.37938 -4.97036,-4.95682 -7.75295,-6.3746c-2.64476,-1.34755 -5.9073,-1.48262 -8.82789,-2.18408c0.07032,-0.03324 0.08773,-0.19947 0.08773,-0.19947c0,0 -0.13579,0.25492 -0.51303,0.24935c-4.44784,-0.65757 -8.51845,-1.30956 -12.2811,-2.09655c1.76624,-0.71954 3.22454,-1.30406 4.68282,-1.88861z" id="svg_46"/>
  <path fill="#FC4999" d="m176.33859,206.3372c0,0 0.27853,-0.29329 0.27853,-0.29329c0,0 0.0291,0.30596 -0.09604,0.3281c-0.12513,0.02212 -0.18249,-0.03481 -0.18249,-0.03481z" id="svg_47"/>
  <path fill="#FC4999" d="m180.3703,207.13919c-0.05263,0.12942 -0.24364,0.15445 -0.72336,0.19326c0.00252,-0.09004 0.29375,-0.19386 0.72336,-0.19326z" id="svg_48"/>
  <path fill="#FC4999" d="m178.1295,208.27859c0.2402,0.00389 -0.09401,0.3198 -0.09401,0.3198c0,0 -0.4319,-0.06168 -0.52925,-0.18841c-0.09735,-0.12672 0.38305,-0.13527 0.62326,-0.13139z" id="svg_49"/>
  <path fill="#FC4999" d="m176.45149,207.19088c-0.30342,0.10129 -0.5479,-0.09857 -0.85907,-0.56158c-0.11168,-0.20819 0.31663,-0.2625 0.5314,-0.2773c0.21477,-0.0148 0.27213,0.04213 0.30245,0.07091c0.03031,0.02879 0.03918,0.5218 0.02522,0.76797z" id="svg_50"/>
  <path fill="#D94ADB" d="m265.3825,176.38522c-4.43054,2.18341 -8.86111,4.36679 -13.59893,6.31537c2.38839,-2.43738 1.85122,-5.40447 1.6022,-8.72862c-0.41971,-2.68757 -1.15534,-4.94355 -1.20343,-7.2141c-0.15088,-7.12328 -6.15875,-14.6136 1.20132,-21.30556c3.04096,-1.45982 6.08191,-2.91965 9.52616,-3.87904c0.7449,4.41536 1.38256,8.33183 1.36212,12.24489c-0.03494,6.68943 -0.54984,13.37552 -0.66943,20.06646c-0.01468,0.82267 1.15771,1.66655 1.77999,2.5006z" id="svg_51"/>
  <path fill="#DF4CDA" d="m253.04376,145.50378c-7.02017,6.64049 -1.0123,14.13081 -0.86142,21.25409c0.04809,2.27055 0.78372,4.52653 0.76132,7.21301c-4.87067,0.84029 -9.02835,0.33704 -12.28403,-3.12851c-2.80673,-2.9877 -5.53921,-6.04706 -8.4021,-8.97947c-2.22689,-2.28098 -4.60394,-4.41533 -6.79425,-6.83138c0.34462,-0.46716 0.61208,-0.65771 0.92238,-0.78815c0.83678,-0.13935 1.67354,-0.27871 2.78655,-0.57699c6.77453,-2.31822 13.27279,-4.47756 20.00174,-6.89603c1.33038,-0.57779 2.43011,-0.89645 3.86981,-1.26657z" id="svg_52"/>
  <path fill="#D049DB" d="m265.72668,176.32521c-0.96646,-0.77404 -2.13885,-1.61792 -2.12417,-2.44059c0.11959,-6.69094 0.63449,-13.37703 0.66943,-20.06646c0.02044,-3.91306 -0.61722,-7.82953 -0.99329,-12.18401c-0.03445,-0.43953 0.06696,-0.39381 0.25803,-0.48547c0.44382,-0.31372 0.6553,-0.56986 0.82556,-0.86005c0,0 -0.00635,0.06925 0.28973,-0.02464c0.76444,-0.54604 1.23282,-0.99817 1.70124,-1.4503c1.76187,-1.16909 3.52371,-2.33817 5.58722,-3.63825c0.6849,3.42429 1.2518,6.97122 1.41409,10.53658c0.36487,8.01539 0.52905,16.03991 0.94,24.4573c-2.63119,2.29634 -5.4274,4.19611 -8.56784,6.15589z" id="svg_53"/>
  <path fill="#D94ADB" d="m266.04129,138.92326c-0.1565,0.34256 -0.62488,0.79469 -1.4195,1.32341c0.1517,-0.35355 0.62964,-0.78369 1.4195,-1.32341z" id="svg_54"/>
  <path fill="#D94ADB" d="m264.07306,140.34274c0.11892,0.23608 -0.09256,0.49222 -0.54838,0.86026c-0.04895,-0.17142 0.10514,-0.48879 0.54838,-0.86026z" id="svg_55"/>
  <path fill="#FB5CA0" d="m209.88378,212.88058c0.02187,-0.00857 -0.02188,0.00859 0,0z" id="svg_56"/>
  <path fill="#FBDABB" d="m140.13583,210.19162c-1.16966,0.8061 -2.62796,1.39062 -4.75883,2.16569c-10.04436,4.54088 -19.41613,8.89122 -29.07241,12.99785c-2.67174,-2.46619 -5.09114,-4.6555 -7.43141,-6.92638c-1.03836,-1.0076 -1.73561,-2.45683 -2.90432,-3.2219c-2.73043,-1.78742 -3.62603,-4.05843 -2.67216,-7.12667c0,0 0.04846,-0.41629 0.07987,-0.62385c3.23366,-2.63565 6.43588,-5.06374 10.10853,-7.81842c0.67752,-0.6146 0.88462,-0.90258 1.09171,-1.19054c0.00001,0 -0.04265,0.08142 -0.00095,0.10152c1.11205,-0.57157 2.18239,-1.16324 3.54808,-1.84565c1.21859,0.79647 1.98766,2.08274 3.08922,2.50827c9.51068,3.67415 19.0813,7.19321 28.92267,10.98008z" id="svg_57"/>
  <path fill="#FACEBD" d="m123.10156,187.56407c0.06761,0.23012 -0.14453,0.42903 -0.58017,0.70112c-0.14612,-0.24495 0.02853,-0.51344 0.58017,-0.70112z" id="svg_58"/>
  <path fill="#FFF7E2" d="m54.38473,283.018c-0.96561,2.13632 -1.88185,3.91739 -2.94919,5.9961c-0.2551,0.17239 -0.44381,0.05157 -0.45068,-0.0788c-0.16168,-3.07028 1.07706,-6.37824 -1.55258,-9.31861c5.43436,-18.21725 12.5562,-35.341 23.83571,-50.87853c0.70097,-0.84629 1.24868,-1.39325 2.25836,-1.98313c6.83149,5.0669 5.49251,12.66687 6.75175,19.42749c0,0 0.06043,0.12824 0.08449,0.19498c-2.10172,1.94079 -4.34379,3.69964 -6.33327,5.70865c-8.89629,8.98373 -16.0837,19.19299 -21.64459,30.93185z" id="svg_59"/>
  <path fill="#E354D8" d="m225.3433,155.24804c2.31029,2.19953 4.68734,4.33388 6.91423,6.61486c2.86289,2.93241 5.59537,5.99177 8.4021,8.97947c3.25568,3.46555 7.41336,3.9688 12.28272,3.55342c0.69244,2.90033 1.22961,5.86742 -1.49323,8.40056c-3.79257,1.64787 -7.55795,2.96515 -11.71286,4.00342c-4.78781,-5.03888 -8.99768,-9.99269 -13.63894,-14.50253c-4.39052,-4.26622 -8.97731,-8.24346 -10.0577,-14.70819c0.45201,-0.13835 0.90401,-0.27671 1.93947,-0.38343c1.2045,-0.26182 1.82553,-0.55528 2.44658,-0.84875c0.3757,-0.12077 0.7514,-0.24155 1.5492,-0.23673c0.75865,-0.08654 1.09521,-0.2987 1.43177,-0.51083c0.00002,0 0.46874,-0.15927 0.95615,-0.21591c0.65179,-0.08621 0.81616,-0.11579 0.98051,-0.14536z" id="svg_60"/>
  <path fill="#E75FD6" d="m215.86782,157.60559c1.25219,6.44819 5.83898,10.42543 10.2295,14.69165c4.64126,4.50984 8.85113,9.46365 13.27157,14.57324c-2.68674,1.09283 -5.39557,1.83597 -8.58343,2.28442c-4.301,-4.04211 -8.32186,-7.61044 -11.89708,-11.58014c-5.00974,-5.56243 -9.68773,-11.42366 -14.50763,-17.15707c0.78633,-0.3327 1.57268,-0.6654 2.6671,-1.09094c2.3349,-0.48236 4.36172,-0.8719 6.91955,-1.14359c0.85964,-0.01758 1.18828,-0.15301 1.51692,-0.28842c0,0 0.21172,-0.27261 0.3835,-0.28915m-7.98057,3.31442c0,0 -0.01723,-0.04327 0,0z" id="svg_61"/>
  <path fill="#6353CB" d="m225.46328,155.03152c-0.28433,0.24609 -0.4487,0.27567 -0.86358,0.29019c0.29014,-0.45974 0.83081,-0.90445 1.57873,-1.21374c-0.10307,0.26584 -0.37053,0.45639 -0.71515,0.92355z" id="svg_62"/>
  <path fill="#DF4CDA" d="m223.18402,155.60855c-0.11394,0.21289 -0.4505,0.42505 -0.91394,0.48428c0.11372,-0.34282 0.38644,-0.45352 0.91394,-0.48428z" id="svg_63"/>
  <path fill="#DF4CDA" d="m220.07391,156.37268c-0.26929,0.27766 -0.89032,0.57112 -1.86377,0.90075c0.26907,-0.27087 0.89053,-0.57791 1.86377,-0.90075z" id="svg_64"/>
  <path fill="#E354D8" d="m215.16098,157.83719c-0.0053,0.19296 -0.33394,0.32839 -0.80655,0.30078c0.06508,-0.22815 0.27412,-0.29325 0.80655,-0.30078z" id="svg_65"/>
  <path fill="#FFA582" d="m106.58911,225.59886c9.37176,-4.35033 18.74353,-8.70067 28.47992,-13.10655c4.43525,0.59646 8.50586,1.24845 12.949,1.89953c0.37253,-0.00093 0.35968,-0.01013 0.35968,-0.01013c2.99091,0.6682 6.25345,0.80327 8.89821,2.15082c2.78259,1.41778 4.97433,3.99522 7.33559,6.32614c-13.08557,1.35803 -26.08362,2.44247 -39.07733,3.5769c-1.14083,0.09958 -2.25306,0.52665 -3.75712,0.92569c-3.52448,0.96076 -6.67044,1.7974 -10.10545,2.85694c-3.86342,1.67151 -7.43777,3.12008 -11.27797,4.80438c-0.26584,0.23569 -0.74714,0.33819 -1.18422,0.49908c-0.70433,0.30576 -0.91937,0.5066 -1.08219,0.7634c-0.54207,0.05789 -1.08414,0.11578 -2.32731,0.11173c-1.27489,-0.0495 -1.84866,-0.03702 -2.41425,-0.01478c0.00819,0.00977 0.02796,0.02579 0.11362,-0.30126c4.42037,-3.71201 8.75508,-7.09696 13.08982,-10.48189z" id="svg_66"/>
  <path fill="#EB6AD3" d="m203.99769,160.40799c5.20296,5.74311 9.88095,11.60434 14.89069,17.16677c3.57522,3.9697 7.59608,7.53803 11.50361,11.63041c-0.69537,0.96061 -1.47622,1.57627 -2.5975,2.21591c-8.86232,-0.81891 -12.26292,-8.56076 -17.89555,-13.2287c-5.43378,-4.50319 -10.22573,-9.78081 -15.50685,-15.02716c2.93603,-1.1283 6.0793,-1.94762 9.6056,-2.75723z" id="svg_67"/>
  <path fill="#9A48DE" d="m303.30908,102.62918c0.3526,0.00721 0.39072,0.26361 0.06683,0.62677c-0.12543,0.08708 -0.14471,-0.39727 -0.06683,-0.62677z" id="svg_68"/>
  <path fill="#FCE3C3" d="m106.30458,225.35516c-4.05021,3.62863 -8.38492,7.01358 -12.9933,10.77429c-0.40442,0.4661 -0.65861,0.58643 -0.64515,0.64169c0.06765,0.27823 0.20514,0.53946 0.31811,0.80668c-0.51002,0.68081 -1.02003,1.36163 -1.74798,2.30902c-2.92256,2.20443 -5.6272,4.14233 -8.645,6.18792c-1.5724,-6.65286 -0.23342,-14.25283 -6.88677,-19.54928c2.30718,-3.2742 4.89818,-6.36177 7.62427,-9.75607c3.19017,-3.0309 6.24527,-5.75507 9.63416,-8.5842c-0.62009,2.96324 0.27551,5.23425 3.00594,7.02167c1.16871,0.76507 1.86596,2.2143 2.90432,3.2219c2.34027,2.27088 4.75967,4.46019 7.4314,6.92638z" id="svg_69"/>
  <path fill="#FFA582" d="m92.97931,237.53906c-0.10804,-0.22846 -0.24553,-0.48969 -0.31318,-0.76792c-0.01346,-0.05526 0.24073,-0.17559 0.5595,-0.31463c0.188,-0.04871 0.16823,-0.06473 0.03496,0.19705c-0.20816,0.44647 -0.28307,0.63116 -0.35798,0.81589c0,0 0.07176,0.03085 0.0767,0.06961z" id="svg_70"/>
  <path fill="#FCE3C3" d="m93.32025,237.61639c-0.34273,-0.33167 -0.26782,-0.51636 -0.06784,-0.97259c0.69885,-0.28403 1.27262,-0.29651 2.27606,-0.2743c-0.31042,0.48774 -1.0505,0.9408 -2.20822,1.24689z" id="svg_71"/>
  <path fill="#FA7A05" d="m98.3359,236.20617c-0.04585,-0.17791 0.16919,-0.37875 0.64475,-0.59393c0.06514,0.20367 -0.14966,0.3988 -0.64475,0.59393z" id="svg_72"/>
  <path fill="#3AC2BD" d="m104.35447,198.57653c0.01525,0.15883 -0.19185,0.44681 -0.66464,0.79929c-0.02969,-0.18037 0.2063,-0.42526 0.66464,-0.79929z" id="svg_73"/>
  <path fill="#FFA582" d="m148.39526,214.3974c0.00471,0.0065 0.1405,-0.24842 0.1405,-0.24842c0,0 -0.01741,0.16623 -0.08773,0.19948c-0.07032,0.03325 -0.05747,0.04245 -0.05277,0.04894z" id="svg_74"/>
  <path fill="#EB6AD3" d="m207.87863,160.89837c-0.00861,-0.02163 0.00862,0.02164 0,0z" id="svg_75"/>
 </g>

</svg>